<svg xmlns="http://www.w3.org/2000/svg" xmlns:xlink="http://www.w3.org/1999/xlink" width="500" zoomAndPan="magnify" viewBox="0 0 375 374.999991" height="500" preserveAspectRatio="xMidYMid meet" version="1.0"><defs><g/><clipPath id="6e039a8f83"><path d="M 101.960938 83 L 147 83 L 147 229 L 101.960938 229 Z M 101.960938 83 " clip-rule="nonzero"/></clipPath><clipPath id="d4dcfea51b"><path d="M 189 77.371094 L 226 77.371094 L 226 114 L 189 114 Z M 189 77.371094 " clip-rule="nonzero"/></clipPath><clipPath id="dd7a99bc26"><path d="M 148 199 L 185 199 L 185 235.621094 L 148 235.621094 Z M 148 199 " clip-rule="nonzero"/></clipPath></defs><rect x="-37.5" width="450" fill="#ffffff" y="-37.499999" height="449.999989" fill-opacity="1"/><rect x="-37.5" width="450" fill="#0f172a" y="-37.499999" height="449.999989" fill-opacity="1"/><g clip-path="url(#6e039a8f83)"><path fill="#19bfec" d="M 134.78125 137.445312 L 134.78125 105.46875 C 134.78125 101.09375 136.636719 98.734375 141.515625 98.734375 L 146.46875 98.734375 L 146.46875 83.585938 L 136.457031 83.585938 C 127.875 83.585938 116.261719 88.804688 116.261719 103.785156 L 116.261719 134.078125 C 116.261719 142.496094 109.523438 147.542969 102.796875 147.542969 C 102.480469 147.542969 102.199219 147.613281 101.960938 147.738281 L 101.960938 164.179688 C 102.203125 164.304688 102.480469 164.378906 102.796875 164.378906 C 109.53125 164.378906 116.261719 169.429688 116.261719 177.839844 L 116.261719 208.140625 C 116.261719 223.125 127.875 228.339844 136.457031 228.339844 L 146.460938 228.339844 L 146.460938 213.191406 L 141.507812 213.191406 C 136.628906 213.191406 134.773438 210.835938 134.773438 206.457031 L 134.773438 174.480469 C 134.773438 162.703125 126.363281 157.648438 126.363281 157.648438 L 117.945312 155.964844 L 126.363281 154.28125 C 126.363281 154.277344 134.78125 149.230469 134.78125 137.445312 Z M 134.78125 137.445312 " fill-opacity="1" fill-rule="nonzero"/></g><path fill="#19bfec" d="M 239.125 137.445312 L 239.125 105.46875 C 239.125 101.09375 237.269531 98.734375 232.386719 98.734375 L 227.4375 98.734375 L 227.4375 83.585938 L 237.445312 83.585938 C 246.027344 83.585938 257.644531 88.804688 257.644531 103.785156 L 257.644531 134.078125 C 257.644531 142.496094 264.378906 147.542969 271.105469 147.542969 C 271.421875 147.542969 271.707031 147.613281 271.941406 147.738281 L 271.941406 164.179688 C 271.699219 164.304688 271.421875 164.378906 271.105469 164.378906 C 264.371094 164.378906 257.644531 169.429688 257.644531 177.839844 L 257.644531 208.140625 C 257.644531 223.125 246.027344 228.339844 237.445312 228.339844 L 227.441406 228.339844 L 227.441406 213.191406 L 232.394531 213.191406 C 237.273438 213.191406 239.128906 210.835938 239.128906 206.457031 L 239.128906 174.480469 C 239.128906 162.703125 247.542969 157.648438 247.542969 157.648438 L 255.960938 155.964844 L 247.542969 154.28125 C 247.542969 154.277344 239.125 149.230469 239.125 137.445312 Z M 239.125 137.445312 " fill-opacity="1" fill-rule="nonzero"/><path fill="#d67070" d="M 230.765625 160.011719 C 230.890625 158.675781 230.949219 157.320312 230.949219 155.960938 C 230.949219 154.59375 230.882812 153.242188 230.765625 151.910156 L 223.667969 151.382812 C 223.445312 149.554688 223.089844 147.765625 222.609375 146.027344 L 228.96875 142.824219 C 228.160156 140.222656 227.113281 137.714844 225.859375 135.339844 L 219.101562 137.570312 C 218.203125 135.984375 217.183594 134.464844 216.066406 133.039062 L 220.707031 127.644531 C 218.976562 125.566406 217.058594 123.648438 214.972656 121.917969 L 209.578125 126.5625 C 208.144531 125.441406 206.632812 124.429688 205.046875 123.53125 L 207.277344 116.769531 C 204.902344 115.519531 202.398438 114.464844 199.792969 113.65625 L 196.589844 120.015625 C 194.855469 119.539062 193.066406 119.183594 191.238281 118.957031 L 190.710938 111.863281 C 189.375 111.742188 188.027344 111.675781 186.660156 111.675781 C 185.292969 111.675781 183.941406 111.742188 182.609375 111.863281 L 182.082031 118.957031 C 180.253906 119.183594 178.464844 119.539062 176.726562 120.015625 L 173.523438 113.65625 C 170.914062 114.464844 168.414062 115.511719 166.039062 116.769531 L 168.269531 123.53125 C 166.679688 124.429688 165.164062 125.441406 163.738281 126.5625 L 158.34375 121.917969 C 156.265625 123.648438 154.347656 125.566406 152.609375 127.644531 L 157.261719 133.039062 C 156.140625 134.464844 155.128906 135.984375 154.222656 137.570312 L 147.460938 135.339844 C 146.210938 137.714844 145.164062 140.222656 144.355469 142.824219 L 150.714844 146.027344 C 150.234375 147.765625 149.882812 149.554688 149.65625 151.382812 L 142.5625 151.910156 C 142.441406 153.242188 142.375 154.597656 142.375 155.960938 C 142.375 157.328125 142.441406 158.675781 142.5625 160.011719 L 149.65625 160.539062 C 149.882812 162.367188 150.234375 164.15625 150.714844 165.890625 L 144.355469 169.09375 C 145.164062 171.699219 146.210938 174.203125 147.460938 176.578125 L 154.222656 174.347656 C 155.121094 175.941406 156.140625 177.453125 157.261719 178.878906 L 152.609375 184.273438 C 154.339844 186.351562 156.261719 188.273438 158.34375 190.007812 L 163.738281 185.367188 C 165.171875 186.484375 166.683594 187.496094 168.269531 188.398438 L 166.039062 195.160156 C 168.414062 196.40625 170.921875 197.453125 173.523438 198.261719 L 176.726562 191.902344 C 178.464844 192.382812 180.253906 192.738281 182.082031 192.960938 L 182.609375 200.058594 C 183.941406 200.175781 185.292969 200.242188 186.660156 200.242188 C 188.027344 200.242188 189.375 200.175781 190.710938 200.058594 L 191.238281 192.960938 C 193.066406 192.738281 194.855469 192.382812 196.589844 191.902344 L 199.792969 198.261719 C 202.398438 197.453125 204.902344 196.40625 207.277344 195.160156 L 205.046875 188.398438 C 206.640625 187.496094 208.152344 186.476562 209.585938 185.359375 L 214.980469 190.007812 C 217.058594 188.277344 218.976562 186.359375 220.714844 184.273438 L 216.066406 178.878906 C 217.183594 177.453125 218.195312 175.933594 219.101562 174.347656 L 225.863281 176.578125 C 227.113281 174.203125 228.160156 171.699219 228.96875 169.09375 L 222.609375 165.890625 C 223.089844 164.15625 223.445312 162.367188 223.667969 160.539062 Z M 189.617188 127.9375 C 189.617188 126.621094 190.671875 125.765625 191.960938 126.027344 C 191.960938 126.027344 197.992188 127.257812 201.878906 129.507812 C 205.765625 131.75 209.847656 136.355469 209.847656 136.355469 C 210.722656 137.339844 210.507812 138.675781 209.363281 139.332031 L 205.167969 141.753906 C 204.027344 142.410156 202.359375 142.167969 201.449219 141.222656 C 201.449219 141.222656 199.476562 139.148438 197.097656 137.773438 C 194.714844 136.398438 191.933594 135.730469 191.933594 135.730469 C 190.65625 135.421875 189.613281 134.09375 189.613281 132.78125 L 189.613281 127.9375 Z M 163.179688 136.355469 C 163.179688 136.355469 167.265625 131.75 171.152344 129.507812 C 175.039062 127.265625 181.070312 126.027344 181.070312 126.027344 C 182.359375 125.765625 183.410156 126.621094 183.410156 127.9375 L 183.410156 132.78125 C 183.410156 134.097656 182.363281 135.421875 181.089844 135.730469 C 181.089844 135.730469 178.304688 136.398438 175.925781 137.773438 C 173.542969 139.148438 171.570312 141.222656 171.570312 141.222656 C 170.664062 142.175781 168.992188 142.410156 167.855469 141.761719 L 163.667969 139.339844 C 162.527344 138.683594 162.3125 137.339844 163.179688 136.355469 Z M 157.734375 166.4375 C 157.734375 166.4375 155.789062 160.597656 155.789062 156.113281 C 155.789062 151.621094 157.734375 145.785156 157.734375 145.785156 C 158.148438 144.542969 159.417969 144.054688 160.554688 144.714844 L 164.75 147.132812 C 165.890625 147.792969 166.515625 149.355469 166.144531 150.621094 C 166.144531 150.621094 165.335938 153.363281 165.335938 156.113281 C 165.335938 158.859375 166.144531 161.601562 166.144531 161.601562 C 166.515625 162.867188 165.890625 164.429688 164.75 165.089844 L 160.554688 167.507812 C 159.425781 168.167969 158.15625 167.6875 157.734375 166.4375 Z M 183.410156 184.285156 C 183.410156 185.601562 182.359375 186.457031 181.070312 186.195312 C 181.070312 186.195312 175.039062 184.957031 171.152344 182.714844 C 167.265625 180.472656 163.179688 175.867188 163.179688 175.867188 C 162.3125 174.882812 162.527344 173.546875 163.667969 172.890625 L 167.863281 170.46875 C 169 169.8125 170.671875 170.054688 171.578125 171 C 171.578125 171 173.550781 173.074219 175.933594 174.449219 C 178.3125 175.824219 181.09375 176.492188 181.09375 176.492188 C 182.371094 176.800781 183.417969 178.132812 183.417969 179.445312 L 183.417969 184.285156 Z M 186.507812 167.179688 C 180.390625 167.179688 175.4375 162.222656 175.4375 156.113281 C 175.4375 150 180.398438 145.042969 186.507812 145.042969 C 192.617188 145.042969 197.578125 150 197.578125 156.113281 C 197.578125 162.222656 192.625 167.179688 186.507812 167.179688 Z M 209.84375 175.867188 C 209.84375 175.867188 205.757812 180.472656 201.871094 182.714844 C 197.984375 184.957031 191.953125 186.195312 191.953125 186.195312 C 190.664062 186.457031 189.613281 185.59375 189.613281 184.285156 L 189.613281 179.441406 C 189.613281 178.125 190.65625 176.800781 191.933594 176.492188 C 191.933594 176.492188 194.714844 175.824219 197.089844 174.449219 C 199.472656 173.074219 201.445312 171 201.445312 171 C 202.351562 170.046875 204.023438 169.8125 205.160156 170.46875 L 209.355469 172.890625 C 210.492188 173.546875 210.710938 174.882812 209.84375 175.867188 Z M 215.289062 166.4375 C 214.875 167.679688 213.605469 168.167969 212.46875 167.507812 L 208.269531 165.089844 C 207.132812 164.429688 206.507812 162.867188 206.875 161.601562 C 206.875 161.601562 207.6875 158.859375 207.6875 156.113281 C 207.6875 153.363281 206.875 150.621094 206.875 150.621094 C 206.5 149.355469 207.132812 147.792969 208.269531 147.132812 L 212.46875 144.714844 C 213.605469 144.054688 214.875 144.535156 215.289062 145.785156 C 215.289062 145.785156 217.234375 151.625 217.234375 156.113281 C 217.230469 160.601562 215.289062 166.4375 215.289062 166.4375 Z M 215.289062 166.4375 " fill-opacity="1" fill-rule="evenodd"/><g clip-path="url(#d4dcfea51b)"><path fill="#ffffff" d="M 225.546875 97.003906 C 225.601562 96.464844 225.628906 95.914062 225.628906 95.359375 C 225.628906 94.808594 225.601562 94.253906 225.546875 93.714844 L 222.667969 93.503906 C 222.574219 92.761719 222.429688 92.039062 222.242188 91.335938 L 224.820312 90.03125 C 224.488281 88.972656 224.070312 87.960938 223.554688 86.996094 L 220.8125 87.902344 C 220.445312 87.257812 220.035156 86.644531 219.582031 86.0625 L 221.472656 83.871094 C 220.765625 83.027344 219.992188 82.246094 219.144531 81.542969 L 216.953125 83.429688 C 216.375 82.976562 215.753906 82.5625 215.109375 82.199219 L 216.019531 79.457031 C 215.050781 78.949219 214.039062 78.523438 212.980469 78.195312 L 211.679688 80.773438 C 210.972656 80.574219 210.25 80.4375 209.507812 80.34375 L 209.296875 77.464844 C 208.757812 77.410156 208.207031 77.386719 207.652344 77.386719 C 207.101562 77.386719 206.546875 77.410156 206.007812 77.464844 L 205.796875 80.34375 C 205.054688 80.4375 204.332031 80.582031 203.628906 80.773438 L 202.324219 78.195312 C 201.265625 78.523438 200.253906 78.945312 199.285156 79.457031 L 200.195312 82.199219 C 199.550781 82.566406 198.9375 82.976562 198.351562 83.429688 L 196.164062 81.542969 C 195.320312 82.246094 194.539062 83.023438 193.835938 83.871094 L 195.722656 86.0625 C 195.269531 86.640625 194.855469 87.257812 194.492188 87.902344 L 191.75 86.996094 C 191.242188 87.960938 190.816406 88.972656 190.488281 90.03125 L 193.066406 91.335938 C 192.867188 92.039062 192.730469 92.761719 192.636719 93.503906 L 189.757812 93.714844 C 189.710938 94.253906 189.679688 94.808594 189.679688 95.359375 C 189.679688 95.914062 189.703125 96.464844 189.75 97.003906 L 192.632812 97.214844 C 192.722656 97.957031 192.867188 98.683594 193.058594 99.386719 L 190.480469 100.6875 C 190.808594 101.746094 191.230469 102.757812 191.742188 103.726562 L 194.484375 102.820312 C 194.855469 103.464844 195.261719 104.074219 195.714844 104.660156 L 193.828125 106.851562 C 194.53125 107.691406 195.308594 108.476562 196.15625 109.179688 L 198.347656 107.289062 C 198.925781 107.746094 199.542969 108.160156 200.1875 108.519531 L 199.28125 111.261719 C 200.246094 111.769531 201.261719 112.195312 202.320312 112.527344 L 203.621094 109.949219 C 204.324219 110.144531 205.046875 110.285156 205.792969 110.375 L 206 113.257812 C 206.542969 113.300781 207.09375 113.335938 207.644531 113.335938 C 208.199219 113.335938 208.75 113.308594 209.289062 113.257812 L 209.5 110.375 C 210.242188 110.285156 210.96875 110.140625 211.671875 109.949219 L 212.972656 112.527344 C 214.03125 112.195312 215.046875 111.777344 216.011719 111.261719 L 215.105469 108.519531 C 215.75 108.152344 216.359375 107.746094 216.945312 107.289062 L 219.136719 109.179688 C 219.976562 108.476562 220.761719 107.699219 221.464844 106.851562 L 219.578125 104.660156 C 220.03125 104.082031 220.445312 103.464844 220.804688 102.820312 L 223.550781 103.726562 C 224.054688 102.757812 224.484375 101.746094 224.8125 100.6875 L 222.234375 99.386719 C 222.429688 98.683594 222.574219 97.957031 222.660156 97.214844 Z M 207.644531 105.542969 C 202.023438 105.542969 197.457031 100.984375 197.457031 95.355469 C 197.457031 89.730469 202.015625 85.167969 207.644531 85.167969 C 213.269531 85.167969 217.832031 89.722656 217.832031 95.355469 C 217.832031 100.984375 213.277344 105.542969 207.644531 105.542969 Z M 207.644531 105.542969 " fill-opacity="1" fill-rule="evenodd"/></g><g clip-path="url(#dd7a99bc26)"><path fill="#ffffff" d="M 184.871094 219.328125 C 184.921875 218.789062 184.949219 218.238281 184.949219 217.683594 C 184.949219 217.132812 184.921875 216.578125 184.871094 216.039062 L 181.988281 215.828125 C 181.898438 215.085938 181.753906 214.363281 181.5625 213.660156 L 184.140625 212.355469 C 183.8125 211.296875 183.390625 210.285156 182.878906 209.320312 L 180.136719 210.226562 C 179.765625 209.582031 179.359375 208.96875 178.90625 208.382812 L 180.792969 206.195312 C 180.089844 205.351562 179.3125 204.570312 178.464844 203.867188 L 176.273438 205.753906 C 175.695312 205.300781 175.078125 204.886719 174.433594 204.523438 L 175.339844 201.78125 C 174.375 201.273438 173.359375 200.847656 172.300781 200.519531 L 171 203.097656 C 170.296875 202.898438 169.574219 202.761719 168.828125 202.667969 L 168.617188 199.789062 C 168.078125 199.734375 167.527344 199.710938 166.972656 199.710938 C 166.421875 199.710938 165.871094 199.734375 165.332031 199.789062 L 165.121094 202.667969 C 164.375 202.761719 163.652344 202.90625 162.949219 203.097656 L 161.648438 200.519531 C 160.589844 200.847656 159.574219 201.269531 158.609375 201.78125 L 159.507812 204.515625 C 158.863281 204.886719 158.253906 205.292969 157.667969 205.746094 L 155.476562 203.859375 C 154.636719 204.5625 153.855469 205.339844 153.148438 206.1875 L 155.039062 208.378906 C 154.582031 208.957031 154.167969 209.574219 153.808594 210.21875 L 151.066406 209.3125 C 150.558594 210.277344 150.132812 211.292969 149.800781 212.351562 L 152.378906 213.652344 C 152.183594 214.355469 152.042969 215.078125 151.953125 215.824219 L 149.070312 216.035156 C 149.027344 216.574219 148.992188 217.125 148.992188 217.679688 C 148.992188 218.230469 149.019531 218.78125 149.066406 219.320312 L 151.945312 219.53125 C 152.039062 220.277344 152.183594 221 152.375 221.703125 L 149.796875 223.003906 C 150.125 224.0625 150.546875 225.078125 151.058594 226.042969 L 153.800781 225.136719 C 154.167969 225.78125 154.578125 226.390625 155.03125 226.976562 L 153.144531 229.167969 C 153.847656 230.007812 154.625 230.792969 155.472656 231.496094 L 157.660156 229.609375 C 158.242188 230.0625 158.859375 230.476562 159.503906 230.839844 L 158.59375 233.582031 C 159.5625 234.085938 160.574219 234.515625 161.632812 234.84375 L 162.9375 232.265625 C 163.640625 232.460938 164.363281 232.601562 165.105469 232.691406 L 165.316406 235.574219 C 165.855469 235.621094 166.410156 235.652344 166.960938 235.652344 C 167.515625 235.652344 168.066406 235.625 168.605469 235.574219 L 168.816406 232.691406 C 169.558594 232.601562 170.28125 232.457031 170.988281 232.265625 L 172.289062 234.84375 C 173.347656 234.515625 174.359375 234.09375 175.328125 233.582031 L 174.417969 230.839844 C 175.0625 230.46875 175.675781 230.0625 176.261719 229.609375 L 178.453125 231.496094 C 179.292969 230.792969 180.074219 230.015625 180.78125 229.167969 L 178.890625 226.976562 C 179.34375 226.398438 179.761719 225.78125 180.121094 225.136719 L 182.863281 226.042969 C 183.371094 225.078125 183.796875 224.0625 184.128906 223.003906 L 181.550781 221.703125 C 181.746094 221 181.890625 220.269531 181.976562 219.53125 Z M 166.972656 227.867188 C 161.351562 227.867188 156.785156 223.308594 156.785156 217.679688 C 156.785156 212.054688 161.34375 207.492188 166.972656 207.492188 C 172.597656 207.492188 177.164062 212.046875 177.164062 217.679688 C 177.15625 223.308594 172.597656 227.867188 166.972656 227.867188 Z M 166.972656 227.867188 " fill-opacity="1" fill-rule="evenodd"/></g><g fill="#19bfec" fill-opacity="1"><g transform="translate(75.144142, 273.219614)"><g><path d="M 12.316406 -26.367188 L 1.84375 -26.367188 L 1.84375 0 L 12.316406 0 C 21.019531 0 25.386719 -6.554688 25.386719 -13.144531 C 25.386719 -19.738281 21.019531 -26.367188 12.316406 -26.367188 Z M 12.316406 -6.140625 L 8.25 -6.140625 L 8.25 -20.265625 L 12.316406 -20.265625 C 16.761719 -20.265625 19.023438 -16.609375 19.023438 -13.144531 C 19.023438 -9.679688 16.761719 -6.140625 12.316406 -6.140625 Z M 12.316406 -6.140625 "/></g></g></g><g fill="#19bfec" fill-opacity="1"><g transform="translate(101.652674, 273.219614)"><g><path d="M 21.546875 -10.246094 C 21.546875 -17.214844 16.273438 -20.679688 11.035156 -20.679688 C 5.726562 -20.679688 0.488281 -17.214844 0.488281 -10.246094 C 0.488281 -3.277344 5.726562 0.226562 11 0.226562 C 15.21875 0.226562 19.398438 -1.996094 20.941406 -6.441406 L 14.5 -6.441406 C 13.636719 -5.5 12.390625 -5.046875 11.074219 -5.046875 C 9.265625 -5.085938 7.421875 -6.027344 6.703125 -7.910156 L 21.320312 -7.910156 C 21.46875 -8.664062 21.546875 -9.417969 21.546875 -10.246094 Z M 15.066406 -12.542969 L 6.929688 -12.542969 C 7.535156 -14.539062 9.152344 -15.519531 10.921875 -15.519531 C 12.84375 -15.519531 14.5 -14.578125 15.066406 -12.542969 Z M 15.066406 -12.542969 "/></g></g></g><g fill="#19bfec" fill-opacity="1"><g transform="translate(125.751339, 273.219614)"><g><path d="M 12.316406 0.0742188 L 20.039062 -19.4375 L 20.039062 -20.378906 L 13.898438 -20.378906 L 11.335938 -13.863281 L 9.90625 -8.664062 L 8.4375 -13.863281 L 5.914062 -20.378906 L -0.261719 -20.378906 L -0.261719 -19.4375 L 7.457031 0.0742188 Z M 12.316406 0.0742188 "/></g></g></g><g fill="#ffffff" fill-opacity="1"><g transform="translate(147.118471, 273.219614)"><g><path d="M 27.121094 0.152344 L 35.671875 -25.574219 L 35.671875 -26.367188 L 29.230469 -26.367188 L 24.183594 -11.113281 L 20.90625 -20.339844 L 15.441406 -20.339844 L 12.128906 -11.113281 L 7.082031 -26.367188 L 0.640625 -26.367188 L 0.640625 -25.574219 L 9.191406 0.152344 L 14.878906 0.152344 L 18.117188 -9.003906 L 21.433594 0.152344 Z M 27.121094 0.152344 "/></g></g></g><g fill="#ffffff" fill-opacity="1"><g transform="translate(183.868942, 273.219614)"><g><path d="M 10.394531 -20.714844 C 3.765625 -20.714844 0.527344 -16.046875 0.527344 -10.472656 C 0.527344 -4.859375 3.878906 0.261719 10.320312 0.261719 C 12.28125 0.261719 14.277344 -0.300781 15.667969 -2.035156 L 15.667969 0 L 21.582031 0 L 21.582031 -20.378906 L 15.667969 -20.378906 L 15.667969 -18.269531 C 14.351562 -19.964844 12.390625 -20.714844 10.394531 -20.714844 Z M 11.035156 -5.425781 C 8.023438 -5.425781 6.480469 -7.871094 6.480469 -10.320312 C 6.480469 -12.808594 7.984375 -15.253906 11.035156 -15.253906 C 13.597656 -15.253906 15.667969 -13.03125 15.667969 -10.320312 C 15.667969 -7.609375 13.597656 -5.425781 11.035156 -5.425781 Z M 11.035156 -5.425781 "/></g></g></g><g fill="#ffffff" fill-opacity="1"><g transform="translate(208.080568, 273.219614)"><g><path d="M 6.855469 -18.34375 L 6.855469 -20.378906 L 0.867188 -20.378906 L 0.867188 0 L 7.15625 0 L 7.15625 -11.074219 C 7.15625 -13.671875 9.265625 -15.179688 11.035156 -15.179688 C 12.65625 -15.179688 14.199219 -13.9375 14.199219 -11.1875 L 14.199219 0 L 20.226562 0 L 20.226562 -11.226562 C 20.265625 -16.308594 18.683594 -20.605469 12.882812 -20.679688 C 10.699219 -20.679688 8.285156 -20.152344 6.855469 -18.34375 Z M 6.855469 -18.34375 "/></g></g></g><g fill="#ffffff" fill-opacity="1"><g transform="translate(230.936646, 273.219614)"><g><path d="M 10.394531 -20.714844 C 3.765625 -20.714844 0.527344 -16.046875 0.527344 -10.472656 C 0.527344 -4.859375 3.878906 0.261719 10.320312 0.261719 C 12.28125 0.261719 14.277344 -0.300781 15.667969 -2.035156 L 15.667969 0 L 21.582031 0 L 21.582031 -20.378906 L 15.667969 -20.378906 L 15.667969 -18.269531 C 14.351562 -19.964844 12.390625 -20.714844 10.394531 -20.714844 Z M 11.035156 -5.425781 C 8.023438 -5.425781 6.480469 -7.871094 6.480469 -10.320312 C 6.480469 -12.808594 7.984375 -15.253906 11.035156 -15.253906 C 13.597656 -15.253906 15.667969 -13.03125 15.667969 -10.320312 C 15.667969 -7.609375 13.597656 -5.425781 11.035156 -5.425781 Z M 11.035156 -5.425781 "/></g></g></g><g fill="#ffffff" fill-opacity="1"><g transform="translate(255.148272, 273.219614)"><g><path d="M 12.28125 -20.714844 C 10.28125 -20.714844 8.324219 -20.078125 6.96875 -18.53125 L 6.96875 -26.820312 L 1.09375 -26.820312 L 1.09375 0 L 6.96875 0 L 6.96875 -2.035156 C 8.363281 -0.300781 10.394531 0.261719 12.355469 0.261719 C 18.796875 0.261719 22.148438 -4.859375 22.148438 -10.472656 C 22.148438 -16.046875 18.910156 -20.714844 12.28125 -20.714844 Z M 11.640625 -5.425781 C 9.078125 -5.425781 6.96875 -7.609375 6.96875 -10.320312 C 6.96875 -13.03125 9.078125 -15.253906 11.640625 -15.253906 C 14.691406 -15.253906 16.195312 -12.808594 16.195312 -10.320312 C 16.195312 -7.871094 14.652344 -5.425781 11.640625 -5.425781 Z M 11.640625 -5.425781 "/></g></g></g><g fill="#ffffff" fill-opacity="1"><g transform="translate(279.28459, 273.219614)"><g><path d="M 0.828125 -24.859375 C 0.828125 -22.636719 2.636719 -21.546875 4.445312 -21.546875 C 6.175781 -21.546875 7.949219 -22.636719 7.949219 -24.859375 C 7.949219 -27.195312 6.140625 -28.324219 4.332031 -28.324219 C 2.597656 -28.324219 0.828125 -27.15625 0.828125 -24.859375 Z M 1.394531 -20.378906 L 7.421875 -20.378906 L 7.421875 0 L 1.394531 0 Z M 1.394531 -20.378906 "/></g></g></g><g fill="#706e6e" fill-opacity="1"><g transform="translate(99.939943, 294.631761)"><g><path d="M 11.3125 0 L 9.390625 0 L 7.234375 -6.328125 L 5.0625 0 L 3.171875 0 L 0.015625 -8.546875 L 1.90625 -8.546875 L 4.125 -1.828125 L 6.28125 -8.546875 L 8.1875 -8.546875 L 10.359375 -1.828125 L 12.546875 -8.546875 L 14.421875 -8.546875 Z M 11.3125 0 "/></g></g></g><g fill="#706e6e" fill-opacity="1"><g transform="translate(114.281519, 294.631761)"><g><path d="M 11.3125 0 L 9.390625 0 L 7.234375 -6.328125 L 5.0625 0 L 3.171875 0 L 0.015625 -8.546875 L 1.90625 -8.546875 L 4.125 -1.828125 L 6.28125 -8.546875 L 8.1875 -8.546875 L 10.359375 -1.828125 L 12.546875 -8.546875 L 14.421875 -8.546875 Z M 11.3125 0 "/></g></g></g><g fill="#706e6e" fill-opacity="1"><g transform="translate(128.623096, 294.631761)"><g><path d="M 11.3125 0 L 9.390625 0 L 7.234375 -6.328125 L 5.0625 0 L 3.171875 0 L 0.015625 -8.546875 L 1.90625 -8.546875 L 4.125 -1.828125 L 6.28125 -8.546875 L 8.1875 -8.546875 L 10.359375 -1.828125 L 12.546875 -8.546875 L 14.421875 -8.546875 Z M 11.3125 0 "/></g></g></g><g fill="#706e6e" fill-opacity="1"><g transform="translate(142.964673, 294.631761)"><g><path d="M 1.015625 -1.671875 C 1.210938 -1.867188 1.457031 -1.96875 1.75 -1.96875 C 2.039062 -1.96875 2.28125 -1.867188 2.46875 -1.671875 C 2.664062 -1.472656 2.765625 -1.226562 2.765625 -0.9375 C 2.765625 -0.625 2.664062 -0.363281 2.46875 -0.15625 C 2.28125 0.0390625 2.039062 0.140625 1.75 0.140625 C 1.457031 0.140625 1.210938 0.0390625 1.015625 -0.15625 C 0.828125 -0.363281 0.734375 -0.625 0.734375 -0.9375 C 0.734375 -1.226562 0.828125 -1.472656 1.015625 -1.671875 Z M 1.015625 -1.671875 "/></g></g></g><g fill="#706e6e" fill-opacity="1"><g transform="translate(146.465747, 294.631761)"><g><path d="M 9.515625 -11.921875 L 9.515625 0 L 7.65625 0 L 7.65625 -1.46875 C 7.03125 -0.4375 6.03125 0.078125 4.65625 0.078125 C 3.4375 0.078125 2.445312 -0.320312 1.6875 -1.125 C 0.9375 -1.9375 0.5625 -3 0.5625 -4.3125 C 0.5625 -5.59375 0.9375 -6.628906 1.6875 -7.421875 C 2.4375 -8.222656 3.414062 -8.625 4.625 -8.625 C 6 -8.625 7.007812 -8.101562 7.65625 -7.0625 L 7.65625 -11.921875 Z M 3.15625 -2.234375 C 3.644531 -1.722656 4.273438 -1.46875 5.046875 -1.46875 C 5.816406 -1.46875 6.441406 -1.722656 6.921875 -2.234375 C 7.410156 -2.753906 7.65625 -3.421875 7.65625 -4.234375 C 7.65625 -5.066406 7.410156 -5.742188 6.921875 -6.265625 C 6.441406 -6.785156 5.816406 -7.046875 5.046875 -7.046875 C 4.273438 -7.046875 3.644531 -6.785156 3.15625 -6.265625 C 2.664062 -5.742188 2.414062 -5.066406 2.40625 -4.234375 C 2.414062 -3.421875 2.664062 -2.753906 3.15625 -2.234375 Z M 3.15625 -2.234375 "/></g></g></g><g fill="#706e6e" fill-opacity="1"><g transform="translate(157.418671, 294.631761)"><g><path d="M 4.890625 -8.609375 C 6.347656 -8.609375 7.40625 -8.164062 8.0625 -7.28125 C 8.726562 -6.394531 9 -5.15625 8.875 -3.5625 L 2.421875 -3.5625 C 2.578125 -2.894531 2.890625 -2.367188 3.359375 -1.984375 C 3.828125 -1.609375 4.398438 -1.421875 5.078125 -1.421875 C 6.035156 -1.421875 6.835938 -1.753906 7.484375 -2.421875 L 8.46875 -1.375 C 7.582031 -0.414062 6.40625 0.0625 4.9375 0.0625 C 3.613281 0.0625 2.550781 -0.332031 1.75 -1.125 C 0.957031 -1.925781 0.5625 -2.96875 0.5625 -4.25 C 0.5625 -5.539062 0.960938 -6.585938 1.765625 -7.390625 C 2.566406 -8.191406 3.609375 -8.597656 4.890625 -8.609375 Z M 2.390625 -4.921875 L 7.28125 -4.921875 C 7.25 -5.597656 7.015625 -6.132812 6.578125 -6.53125 C 6.148438 -6.925781 5.59375 -7.125 4.90625 -7.125 C 4.226562 -7.125 3.664062 -6.925781 3.21875 -6.53125 C 2.769531 -6.132812 2.492188 -5.597656 2.390625 -4.921875 Z M 2.390625 -4.921875 "/></g></g></g><g fill="#706e6e" fill-opacity="1"><g transform="translate(166.86194, 294.631761)"><g><path d="M 5.234375 0 L 3.328125 0 L 0.015625 -8.546875 L 1.9375 -8.546875 L 4.328125 -1.8125 L 6.671875 -8.546875 L 8.515625 -8.546875 Z M 5.234375 0 "/></g></g></g><g fill="#706e6e" fill-opacity="1"><g transform="translate(175.293435, 294.631761)"><g><path d="M 11.3125 0 L 9.390625 0 L 7.234375 -6.328125 L 5.0625 0 L 3.171875 0 L 0.015625 -8.546875 L 1.90625 -8.546875 L 4.125 -1.828125 L 6.28125 -8.546875 L 8.1875 -8.546875 L 10.359375 -1.828125 L 12.546875 -8.546875 L 14.421875 -8.546875 Z M 11.3125 0 "/></g></g></g><g fill="#706e6e" fill-opacity="1"><g transform="translate(189.635012, 294.631761)"><g><path d="M 6.484375 0 L 6.484375 -1.046875 C 5.878906 -0.296875 4.9375 0.078125 3.65625 0.078125 C 2.75 0.078125 2.019531 -0.164062 1.46875 -0.65625 C 0.925781 -1.15625 0.65625 -1.789062 0.65625 -2.5625 C 0.65625 -3.351562 0.9375 -3.976562 1.5 -4.4375 C 2.070312 -4.894531 2.867188 -5.128906 3.890625 -5.140625 L 6.46875 -5.140625 L 6.46875 -5.390625 C 6.46875 -5.941406 6.289062 -6.363281 5.9375 -6.65625 C 5.59375 -6.957031 5.09375 -7.109375 4.4375 -7.109375 C 3.613281 -7.109375 2.769531 -6.820312 1.90625 -6.25 L 1.15625 -7.53125 C 1.8125 -7.914062 2.394531 -8.191406 2.90625 -8.359375 C 3.425781 -8.523438 4.066406 -8.609375 4.828125 -8.609375 C 5.921875 -8.609375 6.765625 -8.34375 7.359375 -7.8125 C 7.960938 -7.28125 8.269531 -6.546875 8.28125 -5.609375 L 8.296875 0 Z M 4.046875 -1.375 C 4.703125 -1.375 5.253906 -1.523438 5.703125 -1.828125 C 6.160156 -2.140625 6.414062 -2.53125 6.46875 -3 L 6.46875 -3.796875 L 4.15625 -3.796875 C 3.550781 -3.796875 3.101562 -3.707031 2.8125 -3.53125 C 2.53125 -3.351562 2.390625 -3.0625 2.390625 -2.65625 C 2.390625 -2.269531 2.535156 -1.957031 2.828125 -1.71875 C 3.128906 -1.488281 3.535156 -1.375 4.046875 -1.375 Z M 4.046875 -1.375 "/></g></g></g><g fill="#706e6e" fill-opacity="1"><g transform="translate(199.046168, 294.631761)"><g><path d="M 6.359375 -8.609375 C 7.359375 -8.609375 8.140625 -8.316406 8.703125 -7.734375 C 9.265625 -7.148438 9.546875 -6.34375 9.546875 -5.3125 L 9.546875 0 L 7.6875 0 L 7.6875 -4.796875 C 7.6875 -5.441406 7.503906 -5.945312 7.140625 -6.3125 C 6.785156 -6.6875 6.285156 -6.875 5.640625 -6.875 C 4.953125 -6.863281 4.390625 -6.644531 3.953125 -6.21875 C 3.523438 -5.789062 3.28125 -5.234375 3.21875 -4.546875 L 3.21875 0 L 1.359375 0 L 1.359375 -8.546875 L 3.21875 -8.546875 L 3.21875 -6.90625 C 3.789062 -8.039062 4.835938 -8.609375 6.359375 -8.609375 Z M 6.359375 -8.609375 "/></g></g></g><g fill="#706e6e" fill-opacity="1"><g transform="translate(209.693941, 294.631761)"><g><path d="M 6.484375 0 L 6.484375 -1.046875 C 5.878906 -0.296875 4.9375 0.078125 3.65625 0.078125 C 2.75 0.078125 2.019531 -0.164062 1.46875 -0.65625 C 0.925781 -1.15625 0.65625 -1.789062 0.65625 -2.5625 C 0.65625 -3.351562 0.9375 -3.976562 1.5 -4.4375 C 2.070312 -4.894531 2.867188 -5.128906 3.890625 -5.140625 L 6.46875 -5.140625 L 6.46875 -5.390625 C 6.46875 -5.941406 6.289062 -6.363281 5.9375 -6.65625 C 5.59375 -6.957031 5.09375 -7.109375 4.4375 -7.109375 C 3.613281 -7.109375 2.769531 -6.820312 1.90625 -6.25 L 1.15625 -7.53125 C 1.8125 -7.914062 2.394531 -8.191406 2.90625 -8.359375 C 3.425781 -8.523438 4.066406 -8.609375 4.828125 -8.609375 C 5.921875 -8.609375 6.765625 -8.34375 7.359375 -7.8125 C 7.960938 -7.28125 8.269531 -6.546875 8.28125 -5.609375 L 8.296875 0 Z M 4.046875 -1.375 C 4.703125 -1.375 5.253906 -1.523438 5.703125 -1.828125 C 6.160156 -2.140625 6.414062 -2.53125 6.46875 -3 L 6.46875 -3.796875 L 4.15625 -3.796875 C 3.550781 -3.796875 3.101562 -3.707031 2.8125 -3.53125 C 2.53125 -3.351562 2.390625 -3.0625 2.390625 -2.65625 C 2.390625 -2.269531 2.535156 -1.957031 2.828125 -1.71875 C 3.128906 -1.488281 3.535156 -1.375 4.046875 -1.375 Z M 4.046875 -1.375 "/></g></g></g><g fill="#706e6e" fill-opacity="1"><g transform="translate(219.105097, 294.631761)"><g><path d="M 6.28125 -8.609375 C 7.488281 -8.609375 8.46875 -8.203125 9.21875 -7.390625 C 9.976562 -6.585938 10.359375 -5.535156 10.359375 -4.234375 C 10.359375 -2.953125 9.988281 -1.914062 9.25 -1.125 C 8.507812 -0.332031 7.53125 0.0625 6.3125 0.0625 C 4.9375 0.0625 3.929688 -0.453125 3.296875 -1.484375 L 3.296875 0 L 1.453125 0 L 1.453125 -11.921875 L 3.296875 -11.921875 L 3.296875 -7.0625 C 3.929688 -8.09375 4.925781 -8.609375 6.28125 -8.609375 Z M 4.015625 -2.28125 C 4.503906 -1.769531 5.128906 -1.515625 5.890625 -1.515625 C 6.648438 -1.515625 7.273438 -1.769531 7.765625 -2.28125 C 8.253906 -2.800781 8.5 -3.476562 8.5 -4.3125 C 8.5 -5.113281 8.253906 -5.769531 7.765625 -6.28125 C 7.273438 -6.800781 6.648438 -7.0625 5.890625 -7.0625 C 5.128906 -7.0625 4.503906 -6.800781 4.015625 -6.28125 C 3.535156 -5.769531 3.296875 -5.113281 3.296875 -4.3125 C 3.296875 -3.476562 3.535156 -2.800781 4.015625 -2.28125 Z M 4.015625 -2.28125 "/></g></g></g><g fill="#706e6e" fill-opacity="1"><g transform="translate(230.025891, 294.631761)"><g><path d="M 1.5 -11.796875 C 1.707031 -12.003906 1.96875 -12.109375 2.28125 -12.109375 C 2.59375 -12.109375 2.847656 -12.003906 3.046875 -11.796875 C 3.253906 -11.585938 3.359375 -11.316406 3.359375 -10.984375 C 3.359375 -10.660156 3.253906 -10.394531 3.046875 -10.1875 C 2.847656 -9.976562 2.59375 -9.875 2.28125 -9.875 C 1.96875 -9.875 1.707031 -9.976562 1.5 -10.1875 C 1.300781 -10.394531 1.203125 -10.660156 1.203125 -10.984375 C 1.203125 -11.316406 1.300781 -11.585938 1.5 -11.796875 Z M 3.203125 0 L 1.359375 0 L 1.359375 -8.546875 L 3.203125 -8.546875 Z M 3.203125 0 "/></g></g></g><g fill="#706e6e" fill-opacity="1"><g transform="translate(234.586935, 294.631761)"><g><path d="M 1.015625 -1.671875 C 1.210938 -1.867188 1.457031 -1.96875 1.75 -1.96875 C 2.039062 -1.96875 2.28125 -1.867188 2.46875 -1.671875 C 2.664062 -1.472656 2.765625 -1.226562 2.765625 -0.9375 C 2.765625 -0.625 2.664062 -0.363281 2.46875 -0.15625 C 2.28125 0.0390625 2.039062 0.140625 1.75 0.140625 C 1.457031 0.140625 1.210938 0.0390625 1.015625 -0.15625 C 0.828125 -0.363281 0.734375 -0.625 0.734375 -0.9375 C 0.734375 -1.226562 0.828125 -1.472656 1.015625 -1.671875 Z M 1.015625 -1.671875 "/></g></g></g><g fill="#706e6e" fill-opacity="1"><g transform="translate(238.088009, 294.631761)"><g><path d="M 4.859375 -8.609375 C 6.410156 -8.609375 7.59375 -8.144531 8.40625 -7.21875 L 7.390625 -6.015625 C 6.742188 -6.671875 5.929688 -6.992188 4.953125 -6.984375 C 4.210938 -6.984375 3.601562 -6.726562 3.125 -6.21875 C 2.644531 -5.71875 2.40625 -5.0625 2.40625 -4.25 C 2.40625 -3.445312 2.644531 -2.789062 3.125 -2.28125 C 3.601562 -1.78125 4.210938 -1.53125 4.953125 -1.53125 C 6.035156 -1.53125 6.875 -1.867188 7.46875 -2.546875 L 8.5 -1.53125 C 7.695312 -0.46875 6.484375 0.0625 4.859375 0.0625 C 3.585938 0.0625 2.550781 -0.332031 1.75 -1.125 C 0.957031 -1.925781 0.5625 -2.96875 0.5625 -4.25 C 0.5625 -5.550781 0.957031 -6.601562 1.75 -7.40625 C 2.550781 -8.207031 3.585938 -8.609375 4.859375 -8.609375 Z M 4.859375 -8.609375 "/></g></g></g><g fill="#706e6e" fill-opacity="1"><g transform="translate(247.145853, 294.631761)"><g><path d="M 5.03125 -8.609375 C 6.34375 -8.609375 7.410156 -8.207031 8.234375 -7.40625 C 9.066406 -6.613281 9.484375 -5.566406 9.484375 -4.265625 C 9.484375 -2.984375 9.066406 -1.941406 8.234375 -1.140625 C 7.410156 -0.335938 6.34375 0.0625 5.03125 0.0625 C 3.695312 0.0625 2.617188 -0.335938 1.796875 -1.140625 C 0.972656 -1.941406 0.5625 -2.984375 0.5625 -4.265625 C 0.5625 -5.566406 0.972656 -6.613281 1.796875 -7.40625 C 2.617188 -8.207031 3.695312 -8.609375 5.03125 -8.609375 Z M 5.03125 -7.015625 C 4.257812 -7.015625 3.628906 -6.757812 3.140625 -6.25 C 2.648438 -5.738281 2.40625 -5.070312 2.40625 -4.25 C 2.40625 -3.425781 2.648438 -2.757812 3.140625 -2.25 C 3.628906 -1.738281 4.257812 -1.484375 5.03125 -1.484375 C 5.800781 -1.484375 6.425781 -1.738281 6.90625 -2.25 C 7.382812 -2.757812 7.625 -3.425781 7.625 -4.25 C 7.625 -5.070312 7.378906 -5.738281 6.890625 -6.25 C 6.410156 -6.757812 5.789062 -7.015625 5.03125 -7.015625 Z M 5.03125 -7.015625 "/></g></g></g><g fill="#706e6e" fill-opacity="1"><g transform="translate(257.183342, 294.631761)"><g><path d="M 12.515625 -8.609375 C 13.484375 -8.609375 14.242188 -8.3125 14.796875 -7.71875 C 15.359375 -7.132812 15.640625 -6.332031 15.640625 -5.3125 L 15.640625 0 L 13.796875 0 L 13.796875 -4.796875 C 13.796875 -5.453125 13.613281 -5.960938 13.25 -6.328125 C 12.894531 -6.703125 12.40625 -6.890625 11.78125 -6.890625 C 11.0625 -6.867188 10.488281 -6.609375 10.0625 -6.109375 C 9.632812 -5.609375 9.421875 -4.976562 9.421875 -4.21875 L 9.421875 0 L 7.578125 0 L 7.578125 -4.796875 C 7.578125 -5.453125 7.394531 -5.960938 7.03125 -6.328125 C 6.675781 -6.703125 6.191406 -6.890625 5.578125 -6.890625 C 4.847656 -6.867188 4.269531 -6.609375 3.84375 -6.109375 C 3.414062 -5.609375 3.203125 -4.976562 3.203125 -4.21875 L 3.203125 0 L 1.359375 0 L 1.359375 -8.546875 L 3.203125 -8.546875 L 3.203125 -6.890625 C 3.765625 -8.035156 4.796875 -8.609375 6.296875 -8.609375 C 7.054688 -8.609375 7.691406 -8.425781 8.203125 -8.0625 C 8.710938 -7.707031 9.066406 -7.203125 9.265625 -6.546875 C 9.796875 -7.921875 10.878906 -8.609375 12.515625 -8.609375 Z M 12.515625 -8.609375 "/></g></g></g></svg>